<svg width="140" height="120" viewBox="0 0 140 120" fill="none" xmlns="http://www.w3.org/2000/svg">
<circle cx="2.5" cy="7.5" r="2.5" fill="#434248" fill-opacity="0.5"/>
<circle cx="32.5" cy="7.5" r="2.5" fill="#434248" fill-opacity="0.5"/>
<circle cx="62.5" cy="7.5" r="2.5" fill="#434248" fill-opacity="0.5"/>
<circle cx="92.5" cy="7.5" r="2.5" fill="#434248" fill-opacity="0.5"/>
<circle cx="122.5" cy="7.5" r="2.5" fill="#434248" fill-opacity="0.5"/>
<circle cx="17.5" cy="2.5" r="2.5" fill="#434248" fill-opacity="0.5"/>
<circle cx="47.5" cy="2.5" r="2.5" fill="#434248" fill-opacity="0.5"/>
<circle cx="77.5" cy="2.5" r="2.5" fill="#434248" fill-opacity="0.5"/>
<circle cx="107.5" cy="2.5" r="2.5" fill="#434248" fill-opacity="0.5"/>
<circle cx="137.5" cy="2.5" r="2.5" fill="#434248" fill-opacity="0.5"/>
<circle cx="2.5" cy="17.5" r="2.5" fill="#434248" fill-opacity="0.5"/>
<circle cx="32.5" cy="17.5" r="2.5" fill="#434248" fill-opacity="0.5"/>
<circle cx="62.5" cy="17.5" r="2.5" fill="#434248" fill-opacity="0.5"/>
<circle cx="92.5" cy="17.5" r="2.5" fill="#434248" fill-opacity="0.5"/>
<circle cx="122.5" cy="17.5" r="2.5" fill="#434248" fill-opacity="0.5"/>
<circle cx="17.5" cy="12.5" r="2.5" fill="#434248" fill-opacity="0.5"/>
<circle cx="47.5" cy="12.5" r="2.5" fill="#434248" fill-opacity="0.5"/>
<circle cx="77.5" cy="12.5" r="2.5" fill="#434248" fill-opacity="0.5"/>
<circle cx="107.5" cy="12.5" r="2.5" fill="#434248" fill-opacity="0.5"/>
<circle cx="137.5" cy="12.5" r="2.5" fill="#434248" fill-opacity="0.5"/>
<circle cx="2.5" cy="27.5" r="2.5" fill="#434248" fill-opacity="0.5"/>
<circle cx="32.5" cy="27.5" r="2.5" fill="#434248" fill-opacity="0.5"/>
<circle cx="62.5" cy="27.5" r="2.5" fill="#434248" fill-opacity="0.5"/>
<circle cx="92.5" cy="27.5" r="2.5" fill="#434248" fill-opacity="0.5"/>
<circle cx="122.5" cy="27.5" r="2.5" fill="#434248" fill-opacity="0.5"/>
<circle cx="17.5" cy="22.5" r="2.5" fill="#434248" fill-opacity="0.5"/>
<circle cx="47.5" cy="22.5" r="2.5" fill="#434248" fill-opacity="0.5"/>
<circle cx="77.5" cy="22.5" r="2.5" fill="#434248" fill-opacity="0.5"/>
<circle cx="107.5" cy="22.5" r="2.5" fill="#434248" fill-opacity="0.5"/>
<circle cx="137.5" cy="22.5" r="2.5" fill="#434248" fill-opacity="0.5"/>
<circle cx="2.5" cy="37.5" r="2.5" fill="#434248" fill-opacity="0.5"/>
<circle cx="32.5" cy="37.5" r="2.5" fill="#434248" fill-opacity="0.5"/>
<circle cx="62.5" cy="37.5" r="2.5" fill="#434248" fill-opacity="0.5"/>
<circle cx="92.5" cy="37.5" r="2.5" fill="#434248" fill-opacity="0.5"/>
<circle cx="122.5" cy="37.5" r="2.5" fill="#434248" fill-opacity="0.5"/>
<circle cx="17.5" cy="32.5" r="2.5" fill="#434248" fill-opacity="0.5"/>
<circle cx="47.5" cy="32.5" r="2.5" fill="#434248" fill-opacity="0.5"/>
<circle cx="77.5" cy="32.5" r="2.5" fill="#434248" fill-opacity="0.5"/>
<circle cx="107.5" cy="32.5" r="2.5" fill="#434248" fill-opacity="0.5"/>
<circle cx="137.5" cy="32.5" r="2.5" fill="#434248" fill-opacity="0.5"/>
<circle cx="2.5" cy="47.5" r="2.5" fill="#434248" fill-opacity="0.5"/>
<circle cx="32.5" cy="47.5" r="2.5" fill="#434248" fill-opacity="0.5"/>
<circle cx="62.5" cy="47.5" r="2.5" fill="#434248" fill-opacity="0.5"/>
<circle cx="92.5" cy="47.5" r="2.5" fill="#434248" fill-opacity="0.5"/>
<circle cx="122.5" cy="47.5" r="2.5" fill="#434248" fill-opacity="0.5"/>
<circle cx="17.5" cy="42.5" r="2.5" fill="#434248" fill-opacity="0.5"/>
<circle cx="47.5" cy="42.5" r="2.5" fill="#434248" fill-opacity="0.5"/>
<circle cx="77.5" cy="42.5" r="2.5" fill="#434248" fill-opacity="0.5"/>
<circle cx="107.5" cy="42.5" r="2.5" fill="#434248" fill-opacity="0.5"/>
<circle cx="137.5" cy="42.5" r="2.5" fill="#434248" fill-opacity="0.5"/>
<circle cx="2.5" cy="57.5" r="2.5" fill="#434248" fill-opacity="0.5"/>
<circle cx="32.5" cy="57.5" r="2.5" fill="#434248" fill-opacity="0.5"/>
<circle cx="62.5" cy="57.5" r="2.5" fill="#434248" fill-opacity="0.5"/>
<circle cx="92.5" cy="57.5" r="2.5" fill="#434248" fill-opacity="0.5"/>
<circle cx="122.5" cy="57.5" r="2.5" fill="#434248" fill-opacity="0.5"/>
<circle cx="17.5" cy="52.5" r="2.5" fill="#434248" fill-opacity="0.5"/>
<circle cx="47.5" cy="52.5" r="2.5" fill="#434248" fill-opacity="0.5"/>
<circle cx="77.5" cy="52.5" r="2.5" fill="#434248" fill-opacity="0.5"/>
<circle cx="107.5" cy="52.5" r="2.5" fill="#434248" fill-opacity="0.5"/>
<circle cx="137.5" cy="52.5" r="2.5" fill="#434248" fill-opacity="0.5"/>
<circle cx="2.5" cy="67.5" r="2.5" fill="#434248" fill-opacity="0.5"/>
<circle cx="32.5" cy="67.5" r="2.5" fill="#434248" fill-opacity="0.5"/>
<circle cx="62.5" cy="67.5" r="2.5" fill="#434248" fill-opacity="0.5"/>
<circle cx="92.5" cy="67.5" r="2.5" fill="#434248" fill-opacity="0.5"/>
<circle cx="122.5" cy="67.5" r="2.5" fill="#434248" fill-opacity="0.5"/>
<circle cx="17.5" cy="62.5" r="2.5" fill="#434248" fill-opacity="0.5"/>
<circle cx="47.5" cy="62.5" r="2.5" fill="#434248" fill-opacity="0.5"/>
<circle cx="77.5" cy="62.5" r="2.5" fill="#434248" fill-opacity="0.5"/>
<circle cx="107.5" cy="62.5" r="2.5" fill="#434248" fill-opacity="0.5"/>
<circle cx="137.5" cy="62.5" r="2.5" fill="#434248" fill-opacity="0.5"/>
<circle cx="2.5" cy="77.5" r="2.5" fill="#434248" fill-opacity="0.5"/>
<circle cx="32.5" cy="77.5" r="2.5" fill="#434248" fill-opacity="0.5"/>
<circle cx="62.5" cy="77.5" r="2.5" fill="#434248" fill-opacity="0.5"/>
<circle cx="92.5" cy="77.5" r="2.5" fill="#434248" fill-opacity="0.5"/>
<circle cx="122.5" cy="77.5" r="2.5" fill="#434248" fill-opacity="0.5"/>
<circle cx="17.5" cy="72.5" r="2.5" fill="#434248" fill-opacity="0.5"/>
<circle cx="47.5" cy="72.5" r="2.5" fill="#434248" fill-opacity="0.5"/>
<circle cx="77.5" cy="72.5" r="2.5" fill="#434248" fill-opacity="0.5"/>
<circle cx="107.5" cy="72.5" r="2.5" fill="#434248" fill-opacity="0.5"/>
<circle cx="137.5" cy="72.5" r="2.5" fill="#434248" fill-opacity="0.5"/>
<circle cx="2.5" cy="87.5" r="2.5" fill="#434248" fill-opacity="0.5"/>
<circle cx="32.5" cy="87.5" r="2.5" fill="#434248" fill-opacity="0.5"/>
<circle cx="62.5" cy="87.5" r="2.5" fill="#434248" fill-opacity="0.5"/>
<circle cx="92.5" cy="87.5" r="2.5" fill="#434248" fill-opacity="0.5"/>
<circle cx="122.5" cy="87.5" r="2.5" fill="#434248" fill-opacity="0.5"/>
<circle cx="17.5" cy="82.5" r="2.5" fill="#434248" fill-opacity="0.5"/>
<circle cx="47.5" cy="82.5" r="2.5" fill="#434248" fill-opacity="0.5"/>
<circle cx="77.5" cy="82.5" r="2.5" fill="#434248" fill-opacity="0.5"/>
<circle cx="107.5" cy="82.5" r="2.5" fill="#434248" fill-opacity="0.5"/>
<circle cx="137.5" cy="82.5" r="2.5" fill="#434248" fill-opacity="0.5"/>
<circle cx="2.5" cy="97.5" r="2.5" fill="#434248" fill-opacity="0.5"/>
<circle cx="32.5" cy="97.5" r="2.5" fill="#434248" fill-opacity="0.5"/>
<circle cx="62.5" cy="97.5" r="2.5" fill="#434248" fill-opacity="0.5"/>
<circle cx="92.5" cy="97.5" r="2.5" fill="#434248" fill-opacity="0.5"/>
<circle cx="122.5" cy="97.5" r="2.5" fill="#434248" fill-opacity="0.5"/>
<circle cx="17.5" cy="92.5" r="2.5" fill="#434248" fill-opacity="0.5"/>
<circle cx="47.5" cy="92.5" r="2.5" fill="#434248" fill-opacity="0.5"/>
<circle cx="77.5" cy="92.5" r="2.5" fill="#434248" fill-opacity="0.5"/>
<circle cx="107.5" cy="92.5" r="2.5" fill="#434248" fill-opacity="0.5"/>
<circle cx="137.5" cy="92.5" r="2.5" fill="#434248" fill-opacity="0.5"/>
<circle cx="2.5" cy="107.5" r="2.5" fill="#434248" fill-opacity="0.5"/>
<circle cx="32.5" cy="107.5" r="2.5" fill="#434248" fill-opacity="0.5"/>
<circle cx="62.5" cy="107.5" r="2.5" fill="#434248" fill-opacity="0.5"/>
<circle cx="92.5" cy="107.5" r="2.5" fill="#434248" fill-opacity="0.5"/>
<circle cx="122.5" cy="107.5" r="2.5" fill="#434248" fill-opacity="0.5"/>
<circle cx="17.5" cy="102.5" r="2.5" fill="#434248" fill-opacity="0.5"/>
<circle cx="47.5" cy="102.5" r="2.5" fill="#434248" fill-opacity="0.5"/>
<circle cx="77.5" cy="102.5" r="2.5" fill="#434248" fill-opacity="0.5"/>
<circle cx="107.5" cy="102.5" r="2.5" fill="#434248" fill-opacity="0.5"/>
<circle cx="137.5" cy="102.5" r="2.5" fill="#434248" fill-opacity="0.5"/>
<circle cx="2.5" cy="117.5" r="2.5" fill="#434248" fill-opacity="0.5"/>
<circle cx="32.5" cy="117.5" r="2.5" fill="#434248" fill-opacity="0.5"/>
<circle cx="62.5" cy="117.5" r="2.5" fill="#434248" fill-opacity="0.5"/>
<circle cx="92.5" cy="117.5" r="2.5" fill="#434248" fill-opacity="0.5"/>
<circle cx="122.5" cy="117.5" r="2.5" fill="#434248" fill-opacity="0.5"/>
<circle cx="17.5" cy="112.5" r="2.5" fill="#434248" fill-opacity="0.5"/>
<circle cx="47.5" cy="112.5" r="2.5" fill="#434248" fill-opacity="0.5"/>
<circle cx="77.5" cy="112.5" r="2.5" fill="#434248" fill-opacity="0.5"/>
<circle cx="107.5" cy="112.5" r="2.5" fill="#434248" fill-opacity="0.5"/>
<circle cx="137.5" cy="112.5" r="2.5" fill="#434248" fill-opacity="0.5"/>
</svg>
